<svg version="1" xmlns="http://www.w3.org/2000/svg" width="1365.333" height="1365.333" viewBox="0 0 1024.000000 1024.000000"><path d="M184 157.8c0 1.3 3.6 11.1 4.3 11.9.4.3.7 1.5.7 2.5 0 1.3 1.5 2.6 4.8 4 10.5 4.6 24 11.3 30 14.9 3.5 2.2 6.8 3.9 7.3 3.9s.9.4.9 1c0 .5.5 1 1 1 1 0 6.7 3.6 8 5 .3.3 2.9 2.3 5.7 4.4 19 13.7 40.1 36.4 54.4 58.7 14.9 23 28.7 55.7 34.5 81.9.2 1.1.6 3 .9 4.2.3 1.3.8 3.9 1.1 5.8.3 1.9.7 3.7.9 4 .3.5 1 4.6 2 12.2.3 1.8.7 6.9 1 11.3.9 12.2.8 11.9 6.7 13.5 2.9.8 5.5 1.4 5.8 1.5 1.6.3 12.4 4 20.5 7.1 1.1.4 2.2.8 2.5.9.3.1 1.6.7 3 1.3 1.4.6 5.9 2.5 10 4.3 8.7 3.6 26.4 12.3 36.5 17.9 3.9 2.1 7.1 3.7 7.3 3.5.2-.1-.4-1.8-1.2-3.6-1.5-3.5-7.6-19.6-8-21.4-.2-.6-.6-1.7-.9-2.5-.6-1.4-9.4-25.9-11.8-32.5-1.8-5.2-8-21.8-10.4-28-1.3-3.3-3.5-9.2-4.9-13-7-19.8-29.1-80.3-41.6-114-2-5.5-5.8-15.9-14.5-39.5-3.1-8.5-6.2-17.1-6.9-19l-1.4-3.5-74.1-.3c-40.7-.1-74.1.1-74.1.6z"/><path d="M756.6 164.7c-1.5 4.3-4.4 12.1-6.3 17.3-2 5.2-3.6 9.9-3.8 10.5-.1.5-.8 2.3-1.4 4-.7 1.6-1.4 3.4-1.5 4-.1.5-1 2.7-1.9 4.9-.9 2.1-1.7 4.1-1.7 4.5 0 .3-1.8 5.3-3.9 11.1-2.2 5.8-6.5 17.5-9.6 26-5.5 15-11.5 31.1-19.5 53-2.1 5.8-6.2 16.8-9 24.5-9.1 25-10.2 27.9-13.8 37.5-1.1 3-3.7 10-5.7 15.5s-5.9 16-8.6 23.3c-2.7 7.3-7 18.9-9.4 25.8-2.5 6.8-5.1 13.7-5.7 15.2-.6 1.5-1.3 3.6-1.5 4.7-.2 1.1-.8 2.4-1.3 2.9-.6.6-1 1.6-1 2.2 0 .7-.5 2.5-1.2 4.1-.6 1.5-1.2 3.2-1.4 3.8-.1.5-2.7 7.5-5.7 15.5s-5.8 15.6-6.2 17c-.4 1.4-1.3 3.8-2 5.5-1.5 3.4-7.5 19.4-7.9 21-.2 1.1-4.2 11.9-5.3 14.5-.3.8-.7 1.8-.8 2.2-.2.5-.4 1-.5 1.3-.1.3-.3.8-.5 1.2-.2.8-.7 2.2-3 8.3-2.4 6.5-5.3 14.4-15 41-5.3 14.6-11 29.9-12.5 34-5.6 15-10.2 27.5-10.5 28.5-.1.5-.6 2.1-1.2 3.5s-1.6 4.3-2.4 6.5c-.7 2.2-1.7 4.4-2.1 5-.4.5-.8 1.5-.8 2.3 0 .8-.6 2.8-1.4 4.5-.8 1.8-3.4 8.8-5.9 15.7-2.5 6.9-7.1 19.5-10.2 28-3.1 8.5-6.4 17.4-7.2 19.8-.9 2.3-1.7 4.2-1.8 4.2-.1 0-3.5-8.9-7.5-19.8-3.9-10.8-7.6-20.6-8-21.7-.5-1.1-2-5.2-3.3-9-1.4-3.9-6.3-17.4-11-30-10.5-28.5-17.3-47.2-18.2-50.5-.4-1.4-1.1-3-1.5-3.5-.4-.6-4.4-8.1-8.9-16.7C479 572 468.5 554 458.2 538c-6.9-10.6-17.4-25.4-18.4-25.8-.4-.2-.8-.8-.8-1.3 0-1.1-11.1-15.5-20.4-26.4-20.3-24-39.4-42.8-57.6-56.5-1.8-1.4-6.8-5.2-11-8.5s-12.4-9.4-18.1-13.6l-10.5-7.6-.2-5.9c-.3-5.9-.5-8.1-1.7-16.4-1.3-9.6-3.4-19.2-6.4-28.8-.5-1.7-.7-3.2-.4-3.2.3 0 .1-.6-.5-1.3-.6-.6-1-1.4-1.1-1.7-.1-2.7-8.4-23.4-12.8-31.8-3.8-7.3-12.7-21.8-14.3-23.2-.3-.3-2.3-2.7-4.5-5.5-11.1-13.9-26.3-26.8-42-35.9-10.7-6.1-30.5-14.4-38.5-16-1.4-.3-4.5-1.1-7-1.7-2.5-.6-5.4-1.3-6.5-1.4-4.1-.7-9.8-1.7-11.9-2.1-12.2-2.6-60.7-2.5-76.1.2-2.7.5-6.9 1-13.5 1.8-1.4.2-3.8.6-5.5 1-1.6.3-4.3.8-6 1.1-1.6.2-4.1.7-5.5 1-1.4.3-3.8.8-5.5 1-1.6.3-8.4 1.9-15 3.6-6.6 1.7-12.8 3.3-13.8 3.5-3.3.8-5.2 1.3-14.5 4-7.5 2.2-9.2 3-8.7 4.3.4.9.9 2.5 1.1 3.6.5 2.7 4.9 16.3 6.5 20 .6 1.6 1.3 3.5 1.4 4 1.3 5.6 20.7 47 27.4 58.3 1.7 2.9 3.1 5.7 3.1 6.2 0 .6.3 1 .8 1 .7 0 1.3 1 4.2 6.6.8 1.6 1.7 3.1 2.1 3.4.3.3 1.9 2.5 3.4 4.9 2.7 4.4 12.9 18.5 15 20.8.5.6 2.8 3.3 5 6 10.8 13.1 29.3 30.2 42 38.8 9.1 6.2 29 16.5 31.8 16.5.7 0 2.3.7 3.5 1.6 1.2.8 2.2 1.3 2.2 1 0-.3 1.9.2 4.3 1 5.3 1.9 16.7 4.4 23.2 5 11.1 1.2 32.2.6 41.5-1.2 1.9-.3 4.6-.8 6-1 10-1.8 29.9-8.4 42.3-14.1 9.8-4.5 10.7-4.7 11.1-2.1.1.7 1.2 3.5 2.4 6.2s2.2 5 2.2 5.2c0 .2 4.7 12.2 10.4 26.6 13.5 34 28.5 72.2 40.3 102.3 1.9 4.9 4.1 10.3 4.8 12 1.5 3.5 22.9 57.7 23 58.5.1.3.6 1.6 1.2 3 3.7 8.9 4.4 10.6 4.5 11 0 .3.4 1.4.9 2.5.4 1.1 2.3 6 4.3 11 1.9 4.9 6.8 17.5 10.9 28 4.1 10.4 8.9 22.8 10.7 27.5 1.7 4.7 3.5 9.4 4 10.5 1.2 2.6 5.8 14.2 27.8 70.5 6.5 16.8 12.3 31.4 12.7 32.5.5 1.1.9 2.2 1 2.5.5 1.4 9.5 24.3 11.6 29.5.7 1.6 1.3 3.2 1.4 3.5.1.3.7 1.8 1.3 3.3.7 1.6 1.2 3 1.2 3.1 0 .2.7 2.1 1.6 4.2.9 2.2 1.6 4 1.5 4.1 0 .2.9 2.4 2 5 1.2 2.7 2.2 5.5 2.4 6.3.3.8 1.4 4.1 2.7 7.2l2.3 5.8h5.5c7.8.1 130.3.1 131.6.1.6-.1 2.5-3.6 4.2-7.9 1.7-4.2 6.3-15.8 10.2-25.7 4-9.9 8-20.3 9-23 1-2.8 4.5-12 7.9-20.5 3.4-8.5 7.9-20 10.1-25.5 2.1-5.5 7.3-18.8 11.5-29.5 7.3-18.5 9.4-24 15.2-39 1.4-3.6 3.1-7.9 3.8-9.5.7-1.7 3.6-9.1 6.5-16.5 2.8-7.4 5.5-14.4 6-15.5.5-1.1 3.8-9.7 7.5-19 3.6-9.4 7-17.9 7.4-19 1.2-2.8 5.1-12.8 11.2-28.5 2.8-7.4 5.9-15.3 6.9-17.5 1.7-4.1 7.4-18.6 7.5-19.5.1-.3.9-2.2 1.8-4.4.9-2.1 1.7-4.1 1.7-4.3 0-.4 7.4-19.1 14.1-35.8.7-1.7 1.3-3.5 1.5-4 .1-.6 3-8 6.4-16.5 3.4-8.5 6.3-16 6.4-16.5.4-1.4 1.6-4.5 3.1-8 .8-1.7 3.4-8.4 6-15 2.5-6.6 8.5-21.9 13.3-34 4.8-12.1 8.7-22.2 8.8-22.5 0-.3.4-1.4.9-2.5 1.9-4.9 7.6-19.4 8-20.5.1-.3.5-1.4 1-2.5 4.9-12.3 9.1-23 13-33 2.5-6.6 5-12.9 5.4-14 .9-1.9 10.6-26.7 18.6-47.5 2.1-5.2 7.1-18.1 11.2-28.5 4.2-10.5 9.1-23.1 10.9-28 1.9-5 3.8-9.9 4.3-11 .5-1.1 2.4-5.8 4.1-10.5 1.8-4.7 3.9-9.9 4.6-11.5.7-1.7 3.4-8.4 5.9-15 7-18.2 10.7-27.7 12.1-31.2.8-1.7 1.4-3.4 1.4-3.8 0-.3.8-2.5 1.9-4.8 1-2.3 2.2-5.2 2.5-6.5l.7-2.2H759.5l-2.9 7.7z"/><path d="M504.8 241.6c-.2.2-2.2.6-4.4 1-15 2.3-32.5 12.3-44.4 25.2-11.6 12.5-20.7 31.9-22.8 48.3-.9 6.9-.7 23.7.2 27.9.4 1.4.9 3.8 1.1 5.4.8 4.2 4.8 15.2 8 21.9l2.8 5.8 4.8-.6c7.8-.9 21.2-5.8 29.6-10.9 17.6-10.7 30.7-27.2 37.8-47.8 2.5-7.5 5.6-26.3 4.9-30.3-.1-1.1-.5-4.8-.8-8.3-.7-7.8-2-13.4-4.7-20.9-1.6-4.6-6.2-14.4-7.4-16.1-.4-.5-4.3-1.1-4.7-.6zM237.5 472.4c-5.8 1-17.8 4-21.5 5.4-1.4.5-2.8 1-3.3 1-1.6.2-16.5 8.6-21.2 12-10.6 7.7-19.5 16.8-26.4 27.2-9.3 13.8-16.4 31.8-18.8 47.5-1.5 10.1-.9 31.7 1.2 42 1.7 8.4 2 8.9 5.5 9.7 6.3 1.4 24.3 1.5 32.5.1 10.9-1.8 26.1-6.8 31.5-10.3.8-.6 2.4-1.4 3.5-1.9 5.6-2.5 23.6-17.6 29-24.3 20.2-25.1 29.6-56.6 26.1-87.8-.8-6.9-3-17.2-4-18.8-1.3-2.2-24.8-3.5-34.1-1.8z"/></svg>